<svg xmlns="http://www.w3.org/2000/svg" width="980" height="540" viewBox="0 0 980 540">
<rect width="100%" height="100%" fill="#fff"/>
<text x="490.0" y="35" font-family="Arial, sans-serif" font-size="22" font-weight="700" text-anchor="middle" fill="#111827">Adaptive vs Fixed Cache: Total Packets</text>
<line x1="90" y1="72" x2="90" y2="452" stroke="#374151"/>
<line x1="90" y1="452" x2="940" y2="452" stroke="#374151"/>
<line x1="85" y1="452.0" x2="940" y2="452.0" stroke="#e5e7eb"/>
<text x="78" y="457.0" font-family="Arial, sans-serif" font-size="12" font-weight="400" text-anchor="end" fill="#4b5563">0</text>
<line x1="85" y1="357.0" x2="940" y2="357.0" stroke="#e5e7eb"/>
<text x="78" y="362.0" font-family="Arial, sans-serif" font-size="12" font-weight="400" text-anchor="end" fill="#4b5563">363</text>
<line x1="85" y1="262.0" x2="940" y2="262.0" stroke="#e5e7eb"/>
<text x="78" y="267.0" font-family="Arial, sans-serif" font-size="12" font-weight="400" text-anchor="end" fill="#4b5563">725</text>
<line x1="85" y1="167.0" x2="940" y2="167.0" stroke="#e5e7eb"/>
<text x="78" y="172.0" font-family="Arial, sans-serif" font-size="12" font-weight="400" text-anchor="end" fill="#4b5563">1088</text>
<line x1="85" y1="72.0" x2="940" y2="72.0" stroke="#e5e7eb"/>
<text x="78" y="77.0" font-family="Arial, sans-serif" font-size="12" font-weight="400" text-anchor="end" fill="#4b5563">1450</text>
<rect x="145.0" y="146.7" width="66.9" height="305.3" fill="#2563eb" rx="4"/>
<text x="178.4375" y="139.72123573423437" font-family="Arial, sans-serif" font-size="11" font-weight="700" text-anchor="middle" fill="#111827">1165</text>
<rect x="221.9" y="121.8" width="66.9" height="330.2" fill="#9ca3af" rx="4"/>
<text x="255.3125" y="114.82725924904321" font-family="Arial, sans-serif" font-size="11" font-weight="700" text-anchor="middle" fill="#111827">1260</text>
<text x="216.875" y="480" font-family="Arial, sans-serif" font-size="14" font-weight="700" text-anchor="middle" fill="#111827">10%</text>
<text x="216.875" y="500" font-family="Arial, sans-serif" font-size="11" font-weight="400" text-anchor="middle" fill="#6b7280">Δ -95 pkts</text>
<rect x="343.8" y="121.6" width="66.9" height="330.4" fill="#2563eb" rx="4"/>
<text x="377.1875" y="114.56521739130432" font-family="Arial, sans-serif" font-size="11" font-weight="700" text-anchor="middle" fill="#111827">1261</text>
<rect x="420.6" y="166.9" width="66.9" height="285.1" fill="#9ca3af" rx="4"/>
<text x="454.0625" y="159.8984587801262" font-family="Arial, sans-serif" font-size="11" font-weight="700" text-anchor="middle" fill="#111827">1088</text>
<text x="415.625" y="480" font-family="Arial, sans-serif" font-size="14" font-weight="700" text-anchor="middle" fill="#111827">50%</text>
<text x="415.625" y="500" font-family="Arial, sans-serif" font-size="11" font-weight="400" text-anchor="middle" fill="#6b7280">Δ +173 pkts</text>
<rect x="542.5" y="135.7" width="66.9" height="316.3" fill="#2563eb" rx="4"/>
<text x="575.9375" y="128.71547770920245" font-family="Arial, sans-serif" font-size="11" font-weight="700" text-anchor="middle" fill="#111827">1207</text>
<rect x="619.4" y="221.4" width="66.9" height="230.6" fill="#9ca3af" rx="4"/>
<text x="652.8125" y="214.40316518980794" font-family="Arial, sans-serif" font-size="11" font-weight="700" text-anchor="middle" fill="#111827">880</text>
<text x="614.375" y="480" font-family="Arial, sans-serif" font-size="14" font-weight="700" text-anchor="middle" fill="#111827">110%</text>
<text x="614.375" y="500" font-family="Arial, sans-serif" font-size="11" font-weight="400" text-anchor="middle" fill="#6b7280">Δ +327 pkts</text>
<rect x="741.2" y="164.5" width="66.9" height="287.5" fill="#2563eb" rx="4"/>
<text x="774.6875" y="157.5400820604765" font-family="Arial, sans-serif" font-size="11" font-weight="700" text-anchor="middle" fill="#111827">1097</text>
<rect x="818.1" y="233.7" width="66.9" height="218.3" fill="#9ca3af" rx="4"/>
<text x="851.5625" y="226.7191325035341" font-family="Arial, sans-serif" font-size="11" font-weight="700" text-anchor="middle" fill="#111827">833</text>
<text x="813.125" y="480" font-family="Arial, sans-serif" font-size="14" font-weight="700" text-anchor="middle" fill="#111827">150%</text>
<text x="813.125" y="500" font-family="Arial, sans-serif" font-size="11" font-weight="400" text-anchor="middle" fill="#6b7280">Δ +264 pkts</text>
<rect x="750" y="30" width="14" height="14" fill="#2563eb"/><text x="772" y="42" font-family="Arial" font-size="13">Adaptive</text>
<rect x="850" y="30" width="14" height="14" fill="#9ca3af"/><text x="872" y="42" font-family="Arial" font-size="13">Fixed</text>
<text transform="rotate(-90 22 270.0)" x="22" y="270.0" font-family="Arial, sans-serif" font-size="13" font-weight="600" text-anchor="middle" fill="#111827">Packets</text>
</svg>