<svg xmlns="http://www.w3.org/2000/svg" width="1000" height="560" viewBox="0 0 1000 560">
<rect width="100%" height="100%" fill="#ffffff"/>
<text x="500.0" y="34" font-family="Arial, sans-serif" font-size="22" font-weight="700" text-anchor="middle" fill="#111827">Receive Rate Over Time</text>
<line x1="80" y1="70" x2="80" y2="490" stroke="#374151"/>
<line x1="80" y1="490" x2="810" y2="490" stroke="#374151"/>
<line x1="75" y1="490.0" x2="810" y2="490.0" stroke="#e5e7eb"/>
<text x="68" y="495.0" font-family="Arial, sans-serif" font-size="12" font-weight="400" text-anchor="end" fill="#4b5563">0</text>
<line x1="75" y1="406.0" x2="810" y2="406.0" stroke="#e5e7eb"/>
<text x="68" y="411.0" font-family="Arial, sans-serif" font-size="12" font-weight="400" text-anchor="end" fill="#4b5563">8.335</text>
<line x1="75" y1="322.0" x2="810" y2="322.0" stroke="#e5e7eb"/>
<text x="68" y="327.0" font-family="Arial, sans-serif" font-size="12" font-weight="400" text-anchor="end" fill="#4b5563">16.671</text>
<line x1="75" y1="238.0" x2="810" y2="238.0" stroke="#e5e7eb"/>
<text x="68" y="243.0" font-family="Arial, sans-serif" font-size="12" font-weight="400" text-anchor="end" fill="#4b5563">25.006</text>
<line x1="75" y1="154.0" x2="810" y2="154.0" stroke="#e5e7eb"/>
<text x="68" y="159.0" font-family="Arial, sans-serif" font-size="12" font-weight="400" text-anchor="end" fill="#4b5563">33.341</text>
<line x1="75" y1="70.0" x2="810" y2="70.0" stroke="#e5e7eb"/>
<text x="68" y="75.0" font-family="Arial, sans-serif" font-size="12" font-weight="400" text-anchor="end" fill="#4b5563">41.677</text>
<line x1="80.0" y1="490" x2="80.0" y2="495" stroke="#374151"/>
<text x="80.0" y="514" font-family="Arial, sans-serif" font-size="12" font-weight="400" text-anchor="middle" fill="#4b5563">0</text>
<line x1="263.4" y1="490" x2="263.4" y2="495" stroke="#374151"/>
<text x="263.4170854271357" y="514" font-family="Arial, sans-serif" font-size="12" font-weight="400" text-anchor="middle" fill="#4b5563">50</text>
<line x1="446.8" y1="490" x2="446.8" y2="495" stroke="#374151"/>
<text x="446.83417085427135" y="514" font-family="Arial, sans-serif" font-size="12" font-weight="400" text-anchor="middle" fill="#4b5563">100</text>
<line x1="630.3" y1="490" x2="630.3" y2="495" stroke="#374151"/>
<text x="630.2512562814071" y="514" font-family="Arial, sans-serif" font-size="12" font-weight="400" text-anchor="middle" fill="#4b5563">150</text>
<line x1="810.0" y1="490" x2="810.0" y2="495" stroke="#374151"/>
<text x="810.0" y="514" font-family="Arial, sans-serif" font-size="12" font-weight="400" text-anchor="middle" fill="#4b5563">199</text>
<text x="445.0" y="542" font-family="Arial, sans-serif" font-size="13" font-weight="600" text-anchor="middle" fill="#111827">Simulation second</text>
<text transform="rotate(-90 22 280.0)" x="22" y="280.0" font-family="Arial, sans-serif" font-size="13" font-weight="600" text-anchor="middle" fill="#111827">ReceiveRate (kbps)</text>
<polyline points="80.0,490.0 83.7,490.0 87.3,490.0 91.0,490.0 94.7,490.0 98.3,490.0 102.0,490.0 105.7,490.0 109.3,490.0 113.0,490.0 116.7,490.0 120.4,490.0 124.0,490.0 127.7,490.0 131.4,490.0 135.0,490.0 138.7,490.0 142.4,490.0 146.0,490.0 149.7,490.0 153.4,490.0 157.0,490.0 160.7,490.0 164.4,490.0 168.0,490.0 171.7,490.0 175.4,490.0 179.0,490.0 182.7,490.0 186.4,490.0 190.1,490.0 193.7,490.0 197.4,490.0 201.1,490.0 204.7,490.0 208.4,490.0 212.1,490.0 215.7,490.0 219.4,490.0 223.1,490.0 226.7,490.0 230.4,490.0 234.1,490.0 237.7,490.0 241.4,490.0 245.1,490.0 248.7,490.0 252.4,490.0 256.1,490.0 259.7,490.0 263.4,490.0 267.1,490.0 270.8,490.0 274.4,490.0 278.1,490.0 281.8,490.0 285.4,490.0 289.1,490.0 292.8,490.0 296.4,490.0 300.1,490.0 303.8,490.0 307.4,490.0 311.1,490.0 314.8,490.0 318.4,490.0 322.1,490.0 325.8,490.0 329.4,490.0 333.1,490.0 336.8,490.0 340.5,490.0 344.1,490.0 347.8,490.0 351.5,490.0 355.1,490.0 358.8,490.0 362.5,490.0 366.1,490.0 369.8,490.0 373.5,490.0 377.1,490.0 380.8,490.0 384.5,490.0 388.1,490.0 391.8,490.0 395.5,490.0 399.1,490.0 402.8,490.0 406.5,490.0 410.2,490.0 413.8,490.0 417.5,490.0 421.2,490.0 424.8,490.0 428.5,490.0 432.2,490.0 435.8,490.0 439.5,490.0 443.2,490.0 446.8,490.0 450.5,469.4 454.2,417.8 457.8,417.8 461.5,428.1 465.2,428.1 468.8,433.2 472.5,407.4 476.2,407.4 479.8,407.4 483.5,407.4 487.2,412.6 490.9,412.6 494.5,412.6 498.2,386.8 501.9,386.8 505.5,407.4 509.2,412.6 512.9,407.4 516.5,412.6 520.2,412.6 523.9,407.4 527.5,412.6 531.2,407.4 534.9,412.6 538.5,407.4 542.2,422.9 545.9,417.8 549.5,407.4 553.2,428.1 556.9,448.7 560.6,448.7 564.2,453.9 567.9,448.7 571.6,453.9 575.2,459.0 578.9,469.4 582.6,469.4 586.2,474.5 589.9,469.4 593.6,469.4 597.2,469.4 600.9,469.4 604.6,469.4 608.2,469.4 611.9,469.4 615.6,469.4 619.2,484.8 622.9,211.4 626.6,288.8 630.3,221.7 633.9,448.7 637.6,448.7 641.3,453.9 644.9,448.7 648.6,448.7 652.3,453.9 655.9,386.8 659.6,433.2 663.3,448.7 666.9,448.7 670.6,438.4 674.3,433.2 677.9,464.2 681.6,469.4 685.3,469.4 688.9,469.4 692.6,469.4 696.3,469.4 699.9,469.4 703.6,453.9 707.3,175.3 711.0,428.1 714.6,448.7 718.3,448.7 722.0,448.7 725.6,448.7 729.3,448.7 733.0,448.7 736.6,448.7 740.3,448.7 744.0,448.7 747.6,453.9 751.3,453.9 755.0,448.7 758.6,448.7 762.3,469.4 766.0,474.5 769.6,433.2 773.3,448.7 777.0,448.7 780.7,448.7 784.3,448.7 788.0,108.2 791.7,422.9 795.3,428.1 799.0,443.6 802.7,464.2 806.3,438.4 810.0,448.7" fill="none" stroke="#2563eb" stroke-width="2" opacity="0.9"/>
<line x1="840" y1="91" x2="864" y2="91" stroke="#2563eb" stroke-width="4"/>
<text x="874" y="96" font-family="Arial, sans-serif" font-size="13" font-weight="400" text-anchor="start" fill="#111827">10% (1165 pkts)</text>
<polyline points="80.0,490.0 83.7,490.0 87.3,490.0 91.0,490.0 94.7,490.0 98.3,490.0 102.0,490.0 105.7,490.0 109.3,490.0 113.0,490.0 116.7,490.0 120.4,490.0 124.0,490.0 127.7,490.0 131.4,490.0 135.0,490.0 138.7,490.0 142.4,490.0 146.0,490.0 149.7,490.0 153.4,490.0 157.0,490.0 160.7,490.0 164.4,490.0 168.0,490.0 171.7,490.0 175.4,490.0 179.0,490.0 182.7,490.0 186.4,490.0 190.1,490.0 193.7,490.0 197.4,490.0 201.1,490.0 204.7,490.0 208.4,490.0 212.1,490.0 215.7,490.0 219.4,490.0 223.1,490.0 226.7,490.0 230.4,490.0 234.1,490.0 237.7,490.0 241.4,490.0 245.1,490.0 248.7,490.0 252.4,490.0 256.1,490.0 259.7,490.0 263.4,490.0 267.1,490.0 270.8,490.0 274.4,490.0 278.1,490.0 281.8,490.0 285.4,490.0 289.1,490.0 292.8,490.0 296.4,490.0 300.1,490.0 303.8,490.0 307.4,490.0 311.1,490.0 314.8,490.0 318.4,490.0 322.1,490.0 325.8,490.0 329.4,490.0 333.1,490.0 336.8,490.0 340.5,490.0 344.1,490.0 347.8,490.0 351.5,490.0 355.1,490.0 358.8,490.0 362.5,490.0 366.1,490.0 369.8,490.0 373.5,490.0 377.1,490.0 380.8,490.0 384.5,490.0 388.1,490.0 391.8,490.0 395.5,490.0 399.1,490.0 402.8,490.0 406.5,490.0 410.2,490.0 413.8,490.0 417.5,490.0 421.2,490.0 424.8,490.0 428.5,490.0 432.2,490.0 435.8,490.0 439.5,490.0 443.2,490.0 446.8,490.0 450.5,469.4 454.2,417.8 457.8,417.8 461.5,428.1 465.2,428.1 468.8,433.2 472.5,407.4 476.2,407.4 479.8,407.4 483.5,407.4 487.2,417.8 490.9,428.1 494.5,402.3 498.2,361.0 501.9,376.5 505.5,392.0 509.2,376.5 512.9,386.8 516.5,397.1 520.2,381.6 523.9,386.8 527.5,402.3 531.2,392.0 534.9,407.4 538.5,397.1 542.2,433.2 545.9,407.4 549.5,402.3 553.2,422.9 556.9,453.9 560.6,448.7 564.2,453.9 567.9,448.7 571.6,448.7 575.2,459.0 578.9,469.4 582.6,469.4 586.2,474.5 589.9,469.4 593.6,469.4 597.2,448.7 600.9,448.7 604.6,371.3 608.2,407.4 611.9,407.4 615.6,417.8 619.2,438.4 622.9,448.7 626.6,433.2 630.3,448.7 633.9,443.6 637.6,293.9 641.3,195.9 644.9,422.9 648.6,417.8 652.3,433.2 655.9,448.7 659.6,448.7 663.3,448.7 666.9,448.7 670.6,448.7 674.3,443.6 677.9,448.7 681.6,448.7 685.3,433.2 688.9,453.9 692.6,392.0 696.3,314.6 699.9,422.9 703.6,433.2 707.3,448.7 711.0,448.7 714.6,448.7 718.3,448.7 722.0,448.7 725.6,453.9 729.3,433.2 733.0,433.2 736.6,433.2 740.3,438.4 744.0,448.7 747.6,453.9 751.3,448.7 755.0,459.0 758.6,459.0 762.3,469.4 766.0,448.7 769.6,464.2 773.3,459.0 777.0,164.9 780.7,361.0 784.3,438.4 788.0,438.4 791.7,448.7 795.3,443.6 799.0,448.7 802.7,448.7 806.3,443.6 810.0,448.7" fill="none" stroke="#059669" stroke-width="2" opacity="0.9"/>
<line x1="840" y1="119" x2="864" y2="119" stroke="#059669" stroke-width="4"/>
<text x="874" y="124" font-family="Arial, sans-serif" font-size="13" font-weight="400" text-anchor="start" fill="#111827">50% (1261 pkts)</text>
<polyline points="80.0,490.0 83.7,490.0 87.3,490.0 91.0,490.0 94.7,490.0 98.3,490.0 102.0,490.0 105.7,490.0 109.3,490.0 113.0,490.0 116.7,490.0 120.4,490.0 124.0,490.0 127.7,490.0 131.4,490.0 135.0,490.0 138.7,490.0 142.4,490.0 146.0,490.0 149.7,490.0 153.4,490.0 157.0,490.0 160.7,490.0 164.4,490.0 168.0,490.0 171.7,490.0 175.4,490.0 179.0,490.0 182.7,490.0 186.4,490.0 190.1,490.0 193.7,490.0 197.4,490.0 201.1,490.0 204.7,490.0 208.4,490.0 212.1,490.0 215.7,490.0 219.4,490.0 223.1,490.0 226.7,490.0 230.4,490.0 234.1,490.0 237.7,490.0 241.4,490.0 245.1,490.0 248.7,490.0 252.4,490.0 256.1,490.0 259.7,490.0 263.4,490.0 267.1,490.0 270.8,490.0 274.4,490.0 278.1,490.0 281.8,490.0 285.4,490.0 289.1,490.0 292.8,490.0 296.4,490.0 300.1,490.0 303.8,490.0 307.4,490.0 311.1,490.0 314.8,490.0 318.4,490.0 322.1,490.0 325.8,490.0 329.4,490.0 333.1,490.0 336.8,490.0 340.5,490.0 344.1,490.0 347.8,490.0 351.5,490.0 355.1,490.0 358.8,490.0 362.5,490.0 366.1,490.0 369.8,490.0 373.5,490.0 377.1,490.0 380.8,490.0 384.5,490.0 388.1,490.0 391.8,490.0 395.5,490.0 399.1,490.0 402.8,490.0 406.5,490.0 410.2,490.0 413.8,490.0 417.5,490.0 421.2,490.0 424.8,490.0 428.5,490.0 432.2,490.0 435.8,490.0 439.5,490.0 443.2,490.0 446.8,490.0 450.5,469.4 454.2,417.8 457.8,417.8 461.5,428.1 465.2,428.1 468.8,417.8 472.5,412.6 476.2,407.4 479.8,340.4 483.5,366.2 487.2,371.3 490.9,345.5 494.5,376.5 498.2,361.0 501.9,366.2 505.5,407.4 509.2,428.1 512.9,428.1 516.5,443.6 520.2,433.2 523.9,402.3 527.5,417.8 531.2,386.8 534.9,402.3 538.5,392.0 542.2,407.4 545.9,433.2 549.5,448.7 553.2,443.6 556.9,448.7 560.6,448.7 564.2,464.2 567.9,469.4 571.6,469.4 575.2,469.4 578.9,469.4 582.6,469.4 586.2,474.5 589.9,479.7 593.6,469.4 597.2,448.7 600.9,433.2 604.6,417.8 608.2,392.0 611.9,386.8 615.6,386.8 619.2,376.5 622.9,397.1 626.6,412.6 630.3,417.8 633.9,402.3 637.6,402.3 641.3,407.4 644.9,407.4 648.6,422.9 652.3,433.2 655.9,422.9 659.6,433.2 663.3,438.4 666.9,417.8 670.6,407.4 674.3,412.6 677.9,417.8 681.6,428.1 685.3,428.1 688.9,433.2 692.6,422.9 696.3,428.1 699.9,407.4 703.6,433.2 707.3,448.7 711.0,448.7 714.6,448.7 718.3,448.7 722.0,448.7 725.6,448.7 729.3,448.7 733.0,448.7 736.6,448.7 740.3,428.1 744.0,428.1 747.6,428.1 751.3,433.2 755.0,443.6 758.6,448.7 762.3,448.7 766.0,453.9 769.6,448.7 773.3,448.7 777.0,448.7 780.7,448.7 784.3,448.7 788.0,438.4 791.7,438.4 795.3,422.9 799.0,438.4 802.7,448.7 806.3,443.6 810.0,448.7" fill="none" stroke="#d97706" stroke-width="2" opacity="0.9"/>
<line x1="840" y1="147" x2="864" y2="147" stroke="#d97706" stroke-width="4"/>
<text x="874" y="152" font-family="Arial, sans-serif" font-size="13" font-weight="400" text-anchor="start" fill="#111827">110% (1207 pkts)</text>
<polyline points="80.0,490.0 83.7,490.0 87.3,490.0 91.0,490.0 94.7,490.0 98.3,490.0 102.0,490.0 105.7,490.0 109.3,490.0 113.0,490.0 116.7,490.0 120.4,490.0 124.0,490.0 127.7,490.0 131.4,490.0 135.0,490.0 138.7,490.0 142.4,490.0 146.0,490.0 149.7,490.0 153.4,490.0 157.0,490.0 160.7,490.0 164.4,490.0 168.0,490.0 171.7,490.0 175.4,490.0 179.0,490.0 182.7,490.0 186.4,490.0 190.1,490.0 193.7,490.0 197.4,490.0 201.1,490.0 204.7,490.0 208.4,490.0 212.1,490.0 215.7,490.0 219.4,490.0 223.1,490.0 226.7,490.0 230.4,490.0 234.1,490.0 237.7,490.0 241.4,490.0 245.1,490.0 248.7,490.0 252.4,490.0 256.1,490.0 259.7,490.0 263.4,490.0 267.1,490.0 270.8,490.0 274.4,490.0 278.1,490.0 281.8,490.0 285.4,490.0 289.1,490.0 292.8,490.0 296.4,490.0 300.1,490.0 303.8,490.0 307.4,490.0 311.1,490.0 314.8,490.0 318.4,490.0 322.1,490.0 325.8,490.0 329.4,490.0 333.1,490.0 336.8,490.0 340.5,490.0 344.1,490.0 347.8,490.0 351.5,490.0 355.1,490.0 358.8,490.0 362.5,490.0 366.1,490.0 369.8,490.0 373.5,490.0 377.1,490.0 380.8,490.0 384.5,490.0 388.1,490.0 391.8,490.0 395.5,490.0 399.1,490.0 402.8,490.0 406.5,490.0 410.2,490.0 413.8,490.0 417.5,490.0 421.2,490.0 424.8,490.0 428.5,490.0 432.2,490.0 435.8,490.0 439.5,490.0 443.2,490.0 446.8,490.0 450.5,469.4 454.2,417.8 457.8,417.8 461.5,428.1 465.2,428.1 468.8,428.1 472.5,407.4 476.2,407.4 479.8,407.4 483.5,407.4 487.2,412.6 490.9,407.4 494.5,422.9 498.2,407.4 501.9,407.4 505.5,422.9 509.2,428.1 512.9,417.8 516.5,412.6 520.2,407.4 523.9,412.6 527.5,407.4 531.2,407.4 534.9,422.9 538.5,417.8 542.2,422.9 545.9,428.1 549.5,428.1 553.2,438.4 556.9,448.7 560.6,448.7 564.2,464.2 567.9,469.4 571.6,469.4 575.2,469.4 578.9,469.4 582.6,469.4 586.2,469.4 589.9,469.4 593.6,469.4 597.2,469.4 600.9,469.4 604.6,433.2 608.2,164.9 611.9,417.8 615.6,428.1 619.2,443.6 622.9,428.1 626.6,443.6 630.3,438.4 633.9,448.7 637.6,448.7 641.3,438.4 644.9,438.4 648.6,453.9 652.3,154.6 655.9,438.4 659.6,433.2 663.3,433.2 666.9,422.9 670.6,417.8 674.3,422.9 677.9,428.1 681.6,428.1 685.3,428.1 688.9,428.1 692.6,438.4 696.3,443.6 699.9,448.7 703.6,448.7 707.3,448.7 711.0,448.7 714.6,453.9 718.3,448.7 722.0,438.4 725.6,453.9 729.3,433.2 733.0,438.4 736.6,428.1 740.3,428.1 744.0,422.9 747.6,443.6 751.3,448.7 755.0,459.0 758.6,422.9 762.3,448.7 766.0,438.4 769.6,448.7 773.3,448.7 777.0,469.4 780.7,464.2 784.3,453.9 788.0,464.2 791.7,469.4 795.3,459.0 799.0,469.4 802.7,453.9 806.3,448.7 810.0,448.7" fill="none" stroke="#dc2626" stroke-width="2" opacity="0.9"/>
<line x1="840" y1="175" x2="864" y2="175" stroke="#dc2626" stroke-width="4"/>
<text x="874" y="180" font-family="Arial, sans-serif" font-size="13" font-weight="400" text-anchor="start" fill="#111827">150% (1097 pkts)</text>
</svg>