<svg xmlns="http://www.w3.org/2000/svg" width="900" height="520" viewBox="0 0 900 520">
<rect width="100%" height="100%" fill="#ffffff"/>
<text x="450.0" y="34" font-family="Arial, sans-serif" font-size="22" font-weight="700" text-anchor="middle" fill="#111827">Total Packets Received by Cache Parameter Scale</text>
<text transform="rotate(-90 22 260.0)" x="22" y="260.0" font-family="Arial, sans-serif" font-size="14" font-weight="600" text-anchor="middle" fill="#111827">Packets</text>
<line x1="90" y1="70" x2="90" y2="430" stroke="#374151"/>
<line x1="90" y1="430" x2="860" y2="430" stroke="#374151"/>
<line x1="85" y1="430.0" x2="860" y2="430.0" stroke="#e5e7eb"/>
<text x="78" y="435.0" font-family="Arial, sans-serif" font-size="12" font-weight="400" text-anchor="end" fill="#4b5563">0</text>
<line x1="85" y1="340.0" x2="860" y2="340.0" stroke="#e5e7eb"/>
<text x="78" y="345.0" font-family="Arial, sans-serif" font-size="12" font-weight="400" text-anchor="end" fill="#4b5563">363</text>
<line x1="85" y1="250.0" x2="860" y2="250.0" stroke="#e5e7eb"/>
<text x="78" y="255.0" font-family="Arial, sans-serif" font-size="12" font-weight="400" text-anchor="end" fill="#4b5563">725</text>
<line x1="85" y1="160.0" x2="860" y2="160.0" stroke="#e5e7eb"/>
<text x="78" y="165.0" font-family="Arial, sans-serif" font-size="12" font-weight="400" text-anchor="end" fill="#4b5563">1088</text>
<line x1="85" y1="70.0" x2="860" y2="70.0" stroke="#e5e7eb"/>
<text x="78" y="75.0" font-family="Arial, sans-serif" font-size="12" font-weight="400" text-anchor="end" fill="#4b5563">1450</text>
<rect x="140.0" y="140.8" width="130.0" height="289.2" fill="#2563eb" rx="4"/>
<text x="205.0" y="132.7885391166431" font-family="Arial, sans-serif" font-size="13" font-weight="700" text-anchor="middle" fill="#111827">1165</text>
<text x="205.0" y="458" font-family="Arial, sans-serif" font-size="14" font-weight="700" text-anchor="middle" fill="#111827">10%</text>
<text x="205.0" y="478" font-family="Arial, sans-serif" font-size="11" font-weight="400" text-anchor="middle" fill="#6b7280">010pct</text>
<rect x="320.0" y="117.0" width="130.0" height="313.0" fill="#059669" rx="4"/>
<text x="385.0" y="108.95652173913038" font-family="Arial, sans-serif" font-size="13" font-weight="700" text-anchor="middle" fill="#111827">1261</text>
<text x="385.0" y="458" font-family="Arial, sans-serif" font-size="14" font-weight="700" text-anchor="middle" fill="#111827">50%</text>
<text x="385.0" y="478" font-family="Arial, sans-serif" font-size="11" font-weight="400" text-anchor="middle" fill="#6b7280">050pct</text>
<rect x="500.0" y="130.4" width="130.0" height="299.6" fill="#d97706" rx="4"/>
<text x="565.0" y="122.36203151398126" font-family="Arial, sans-serif" font-size="13" font-weight="700" text-anchor="middle" fill="#111827">1207</text>
<text x="565.0" y="458" font-family="Arial, sans-serif" font-size="14" font-weight="700" text-anchor="middle" fill="#111827">110%</text>
<text x="565.0" y="478" font-family="Arial, sans-serif" font-size="11" font-weight="400" text-anchor="middle" fill="#6b7280">110pct</text>
<rect x="680.0" y="157.7" width="130.0" height="272.3" fill="#dc2626" rx="4"/>
<text x="745.0" y="149.6695514257146" font-family="Arial, sans-serif" font-size="13" font-weight="700" text-anchor="middle" fill="#111827">1097</text>
<text x="745.0" y="458" font-family="Arial, sans-serif" font-size="14" font-weight="700" text-anchor="middle" fill="#111827">150%</text>
<text x="745.0" y="478" font-family="Arial, sans-serif" font-size="11" font-weight="400" text-anchor="middle" fill="#6b7280">150pct</text>
</svg>